<?xml version="1.0" encoding="UTF-8"?><svg id="Layer_1" xmlns="http://www.w3.org/2000/svg" viewBox="0 0 320.9 173.3"><defs><style>.cls-1{fill:#fff;}</style></defs><path class="cls-1" d="m144.8,131.6c-8.9,4.5-18.7,6.9-28.6,6.7-28,0-48.9-19.2-48.9-45.4s22.8-45.6,50.1-45.6,17.9,2.1,25.9,6.1v25c-7.3-4.9-15.7-7.8-24.5-8.1-8.5-.4-16.4,4-20.6,11.2s-4.2,16.3.1,23.4c4.4,7.1,12.4,11.4,20.9,10.8,9.3-.1,18.1-3.2,25.5-8.7v24.5h0Zm-127.9-22.8c0-9-2.5-12.6-11.8-12.6H0v-19.4h5.2c9.3,0,11.8-3.6,11.8-12.6V28.8c0-17.1,9.8-28.8,30.6-28.8s8.2.4,12.3,1.1v18.9c-2.2-.5-4.5-.8-6.7-.8-7.8,0-11.2,3.3-11.2,12.7v31.2c0,13.1-3,20.1-12.3,23.2v.4c9.3,3,12.3,10.1,12.3,23.2v31.2c0,9.4,3.4,12.7,11.2,12.7s4.5-.3,6.7-.8v18.9c-4.1.7-8.2,1.1-12.3,1.1-21,0-30.6-11.9-30.6-28.8v-35.2h0ZM156.5,15.5h27v70.6h.4l30.6-37h30.6l-33.5,39,36,48.2h-31.9l-31.9-44.4h-.4v44.3h-27V15.5Zm122.5,94.5c0-13.1,3-20.1,12.3-23.2v-.4c-9.3-3-12.3-10.1-12.3-23.2v-31.2c0-9.4-3.3-12.7-11.2-12.7s-4.5.3-6.7.7V1.1c4.1-.7,8.2-1.1,12.3-1.1,21,0,30.6,11.9,30.6,28.8v35.5c0,9,2.5,12.6,11.8,12.6h5.2v19.4h-5.2c-9.3,0-11.8,3.6-11.8,12.6v35.6c0,16.9-9.8,28.8-30.6,28.8s-8.2-.4-12.3-1.1v-18.9c2.2.5,4.5.8,6.7.8,7.8,0,11.2-3.3,11.2-12.7v-31.5h0Z"/></svg>